# xmcd
#
# Track frame offsets: 
#        150
#        14966
#        33390
#        49315
#        58498
#        74013
#        93265
#        112188
#        120975
#        133448
#        145133
#
# Disc length: 2103 seconds
#
# Revision: 0
# Processed by: cddbd v1.5.2PL0 Copyright (c) Steve Scherf et al.
# Submitted via: ExactAudioCopy v0.99pb4
#
DISCID=b408350b
DTITLE=Balos Family, The - Christmas With the Balos Family
DYEAR=2009
DGENRE=Bluegrass
TTITLE0=C-H-R-I-S-T-M-A-S
TTITLE1=Beautiful Star of Bethlehem
TTITLE2=That's Why There's a Christmas Day
TTITLE3=No Reservation at the Inn
TTITLE4=A Carpenter, A Mother, And a King
TTITLE5=The Friendly Beast
TTITLE6=Follow That Star
TTITLE7=Mary's Boy Child
TTITLE8=Mary's Little Lamb
TTITLE9=If the Snow DOn't Fall for Christmas
TTITLE10=O Come All Ye Faithful
EXTD=
EXTT0=
EXTT1=
EXTT2=
EXTT3=
EXTT4=
EXTT5=
EXTT6=
EXTT7=
EXTT8=
EXTT9=
EXTT10=
PLAYORDER=
